<?xml version="1.0" encoding="UTF-8"?>
<svg width="93px" height="34px" viewBox="0 0 93 34" version="1.1" xmlns="http://www.w3.org/2000/svg" xmlns:xlink="http://www.w3.org/1999/xlink">
    <title>icons/google-play</title>
    <defs>
        <linearGradient x1="66.7338542%" y1="200.266927%" x2="66.7338542%" y2="24.9804688%" id="linearGradient-1">
            <stop stop-color="#4A4A4A" offset="0%"></stop>
            <stop stop-color="#383737" offset="100%"></stop>
        </linearGradient>
        <rect id="path-2" x="0" y="0" width="89" height="30" rx="3.6"></rect>
        <filter x="-3.9%" y="-8.3%" width="107.9%" height="123.3%" filterUnits="objectBoundingBox" id="filter-3">
            <feOffset dx="0" dy="1" in="SourceAlpha" result="shadowOffsetOuter1"></feOffset>
            <feGaussianBlur stdDeviation="1" in="shadowOffsetOuter1" result="shadowBlurOuter1"></feGaussianBlur>
            <feColorMatrix values="0 0 0 0 0   0 0 0 0 0   0 0 0 0 0  0 0 0 0.1 0" type="matrix" in="shadowBlurOuter1"></feColorMatrix>
        </filter>
        <linearGradient x1="57.4575717%" y1="9.59026547%" x2="84.1306811%" y2="60.8514694%" id="linearGradient-4">
            <stop stop-color="#FF177B" offset="0%"></stop>
            <stop stop-color="#FFEC73" offset="100%"></stop>
        </linearGradient>
        <linearGradient x1="46.1650848%" y1="-44.0352456%" x2="35.1325599%" y2="101.060094%" id="linearGradient-5">
            <stop stop-color="#064AA2" offset="0%"></stop>
            <stop stop-color="#63FFD4" offset="100%"></stop>
        </linearGradient>
        <path d="M8.37576168,7.62 L0.301286391,0 C0.112909036,0.0435712112 0,0.183877799 0,0.42 L0,7.62 L0,15 C0,15.200332 0.0811045837,15.3195247 0.180771835,15.36 L8.37576168,7.62 Z" id="path-6"></path>
        <path d="M1.33573836,8.66711186 L6.00278974,6.1142851 C7.15206318,5.48017533 8.06415523,4.97692558 8.06415523,4.97692558 L11.4581071,3.15668028 L9.19856954,0.970477891 L1.00367532,8.71144103 C1.09501499,8.74069166 1.25600385,8.72470321 1.38160089,8.66297908" id="path-8"></path>
        <linearGradient x1="73.9516565%" y1="50%" x2="10.2790377%" y2="100%" id="linearGradient-10">
            <stop stop-color="#FF4521" offset="0%"></stop>
            <stop stop-color="#8A33DB" offset="100%"></stop>
        </linearGradient>
        <linearGradient x1="0%" y1="9.42835378%" x2="64.2244373%" y2="77.3444192%" id="linearGradient-11">
            <stop stop-color="#00A3B5" offset="0%"></stop>
            <stop stop-color="#D6FFA1" offset="100%"></stop>
        </linearGradient>
        <path d="M1.43182783,1.06881246 C1.27638736,0.98591783 1.1219453,0.962204654 0.997011973,0.995719484 L9.078191,8.6268042 L11.3138978,6.52012093 L7.94389071,4.66135349 C7.94389071,4.66135349 4.76754981,2.90902738 2.84965651,1.85093822 L1.43182783,1.06881246 Z" id="path-12"></path>
    </defs>
    <g id="Landing" stroke="none" stroke-width="1" fill="none" fill-rule="evenodd">
        <g id="artboard/lotto-landing-front-end" transform="translate(-813.000000, -774.000000)">
            <g id="Group-8" transform="translate(533.000000, 292.000000)">
                <g id="Group-7" transform="translate(163.000000, 447.000000)">
                    <g id="Group-9" transform="translate(0.000000, 36.000000)">
                        <g id="Play-Store" transform="translate(119.000000, 0.000000)">
                            <g id="background">
                                <use fill="black" fill-opacity="1" filter="url(#filter-3)" xlink:href="#path-2"></use>
                                <use fill="url(#linearGradient-1)" fill-rule="evenodd" xlink:href="#path-2"></use>
                            </g>
                            <g id="icon" transform="translate(2.613184, 9.140000)">
                                <path d="M8.24392695,5.26135349 C8.24392695,5.26135349 2.10338525,1.87373488 1.74274169,1.6747093 C1.38149806,1.47568372 1.02205464,1.59641395 1.02205464,2.01239535 L1.02205464,9.24425581 L1.02205464,16.6231442 C1.02205464,16.9345326 1.27888567,17.069607 1.59272357,16.8968791 C1.90596141,16.7241512 8.24392695,13.2271581 8.24392695,13.2271581 C8.24392695,13.2271581 9.10492854,12.7524152 9.53542933,12.5150437 C10.2282642,12.1330253 11.613934,11.3689884 11.613934,11.3689884 C11.613934,11.3689884 14.4732794,9.79112791 14.8537253,9.58194186 C15.2335712,9.37215814 15.1969668,9.08467674 14.8765281,8.91912093 C14.5554893,8.75416279 11.613934,7.12012093 11.613934,7.12012093 L8.24392695,5.26135349 Z" id="orange" fill="url(#linearGradient-4)"></path>
                                <g id="blue" transform="translate(1.002252, 1.600000)">
                                    <mask id="mask-7" fill="white">
                                        <use xlink:href="#path-6"></use>
                                    </mask>
                                    <use id="Clip-2" fill="url(#linearGradient-5)" xlink:href="#path-6"></use>
                                    <path d="M10.605281,5.52 L7.23087339,3.66 C7.21905581,3.68706552 1.0809089,0.293224933 0.723087339,0.12 C0.359303235,-0.105557324 0,0.0153946515 0,0.42 L0,7.68 C0,7.67728318 0,14.7571652 0,15.06 C0,15.3816845 0.256730859,15.517007 0.542315504,15.36 C0.883562045,15.1709167 7.21905581,11.6675008 7.23087339,11.64 L10.605281,9.78 C10.5877486,9.8059182 13.4459788,8.2251597 13.7989167,8.04 C14.2059741,7.80542042 14.169384,7.51741101 13.859174,7.38 C13.5281567,7.18629001 10.5877486,5.54924693 10.605281,5.52" id="Fill-1" mask="url(#mask-7)"></path>
                                </g>
                                <g id="red" transform="translate(0.179772, 8.250233)">
                                    <mask id="mask-9" fill="white">
                                        <use xlink:href="#path-8"></use>
                                    </mask>
                                    <g id="Clip-8"></g>
                                    <path d="M8.05335393,-2.99023256 C8.04153635,-2.96316704 1.90338944,-6.35700763 1.54556788,-6.53023256 C1.18178377,-6.75578988 0.822480538,-6.63483791 0.822480538,-6.23023256 L0.822480538,1.02976744 C0.822480538,1.02705062 0.822480538,8.10693261 0.822480538,8.40976744 C0.822480538,8.73145197 1.0792114,8.86677448 1.36479604,8.70976744 C1.70604258,8.52068417 8.04153635,5.01726828 8.05335393,4.98976744 L11.4277615,3.12976744 C11.4102291,3.15568564 14.2684594,1.57492714 14.6213973,1.38976744 C15.0284547,1.15518786 14.9918645,0.867178455 14.6816545,0.729767442 C14.3506372,0.536057452 11.4102291,-1.10098563 11.4277615,-1.13023256 L8.05335393,-2.99023256 Z" id="Fill-7" fill="url(#linearGradient-10)" mask="url(#mask-9)"></path>
                                </g>
                                <g id="green" transform="translate(0.300036, 0.600000)">
                                    <mask id="mask-13" fill="white">
                                        <use xlink:href="#path-12"></use>
                                    </mask>
                                    <use id="Clip-5" fill="url(#linearGradient-11)" xlink:href="#path-12"></use>
                                    <path d="M11.307497,6.52 L7.9330894,4.66 C7.92127183,4.68706552 1.78312491,1.29322493 1.42530335,1.12 C1.06151925,0.894442676 0.702216012,1.01539465 0.702216012,1.42 L0.702216012,8.68 C0.702216012,8.67728318 0.702216012,15.7571652 0.702216012,16.06 C0.702216012,16.3816845 0.958946871,16.517007 1.24453152,16.36 C1.58577806,16.1709167 7.92127183,12.6675008 7.9330894,12.64 L11.307497,10.78 C11.2899646,10.8059182 14.1481948,9.2251597 14.5011327,9.04 C14.9081902,8.80542042 14.8716,8.51741101 14.56139,8.38 C14.2303727,8.18629001 11.2899646,6.54924693 11.307497,6.52" id="Fill-4" mask="url(#mask-13)"></path>
                                </g>
                            </g>
                            <g id="Google-play" transform="translate(20.909276, 12.060000)" fill="#FFFFFF">
                                <path d="M40.0479073,8.87218806 L39.3806364,9.50282211 C39.2264282,9.58770719 39.0730469,9.6862567 38.9200789,9.75623513 C38.4566275,9.96699858 37.9853209,10.02 37.5665196,10.02 C37.1208455,10.02 36.4221542,9.99101485 35.7094064,9.47466511 C34.7192492,8.77612299 34.2863913,7.57530963 34.2863913,6.52894571 C34.2863913,4.36251279 36.0471761,3.3 37.4834208,3.3 C37.9853209,3.3 38.5008642,3.42587837 38.9200789,3.69129953 C39.6171165,4.15299156 39.7973706,4.75298416 39.8974199,5.07430526 L36.6177051,6.40141105 L35.5436222,6.48505392 C35.8913142,8.26142954 37.0910788,9.2945431 38.4169385,9.2945431 C39.0792483,9.2945431 39.5708127,9.07798262 40.0218614,8.85479697 C40.0218614,8.85479697 40.1124019,8.80759258 40.0479073,8.87218806 L40.0479073,8.87218806 Z M38.0440048,5.30865215 C38.3072217,5.21110699 38.4441435,5.12690134 38.4441435,4.9309773 C38.4441435,4.36905049 37.8208427,3.72 37.076969,3.72 C36.5260119,3.72 35.4915369,4.15770264 35.4915369,5.67757295 C35.4915369,5.9147661 35.51933,6.16738305 35.5332265,6.42 L38.0440048,5.30865215 L38.0440048,5.30865215 Z" id="Fill-1"></path>
                                <path d="M33.2033343,8.7961884 C33.2033343,9.33771472 33.2997595,9.42197968 33.7567488,9.46452523 C33.9949271,9.49261355 34.2322814,9.50500546 34.4671632,9.53309378 L33.9528957,9.84 L31.5022957,9.84 C31.8237128,9.42197968 31.8789307,9.38026026 31.8789307,9.10185543 L31.8789307,8.79081857 L31.8735737,0.50311141 L30.7914692,0.50311141 L31.8331905,0 L33.8218564,0 C33.3908277,0.250316514 33.2618487,0.402736966 33.2066309,0.890565024 L33.2033343,8.7961884" id="Fill-2"></path>
                                <path d="M29.4012804,3.9838656 C29.7201138,4.24694952 30.3853443,4.80533173 30.3853443,5.86427549 C30.3853443,6.89637396 29.8056846,7.38289337 29.2210881,7.84339348 C29.0417186,8.0247025 28.8319057,8.22129268 28.8319057,8.52526406 C28.8319057,8.83377849 29.0417186,9.00104534 29.1927017,9.12577273 L29.6941957,9.51441005 C30.3038875,10.0310788 30.8596861,10.5047951 30.8596861,11.4670957 C30.8596861,12.7779723 29.5958716,14.1 27.2077066,14.1 C25.1959706,14.1 24.2234259,13.1381123 24.2234259,12.1068399 C24.2234259,11.6050393 24.4723216,10.8942584 25.2934719,10.407326 C26.1541164,9.8790931 27.3200182,9.80846932 27.9445203,9.76716886 C27.7495177,9.51441005 27.5269514,9.24967411 27.5269514,8.81767131 C27.5269514,8.58143268 27.5977118,8.44059812 27.6660039,8.27457027 C27.514198,8.28902543 27.361158,8.3038936 27.2221055,8.3038936 C25.7497122,8.3038936 24.9174542,7.20117135 24.9174542,6.11455627 C24.9174542,5.47357315 25.2087239,4.76237925 25.8068966,4.24694952 C26.5984262,3.59275025 27.5421731,3.48 28.2921515,3.48 L31.1530129,3.48 L30.2635705,3.9838656 L29.4012804,3.9838656 L29.4012804,3.9838656 Z M28.4245697,10.1551365 C28.3096899,10.14 28.240845,10.14 28.1023257,10.14 C27.9754188,10.14 27.2193689,10.1677502 26.6337723,10.367047 C26.3239701,10.4818318 25.4285714,10.8211409 25.4285714,11.8289771 C25.4285714,12.8347111 26.3953034,13.56 27.8908142,13.56 C29.2345344,13.56 29.9478673,12.9070298 29.9478673,12.0278535 C29.9478673,11.3042464 29.4862745,10.9224711 28.4245697,10.1551365 L28.4245697,10.1551365 Z M28.8171524,7.47091703 C29.1366675,7.15018091 29.1645227,6.70716157 29.1645227,6.45559576 C29.1645227,5.45633188 28.5717811,3.9 27.4227555,3.9 C27.0643251,3.9 26.6759913,4.0807486 26.4556078,4.36031192 C26.2217063,4.64975671 26.1516588,5.02525265 26.1516588,5.38633812 C26.1516588,6.31684342 26.6915574,7.86 27.8790887,7.86 C28.2256397,7.86 28.5984074,7.69077979 28.8171524,7.47091703 L28.8171524,7.47091703 Z" id="Fill-3"></path>
                                <path d="M20.7488022,10.02 C18.5373371,10.02 17.3540961,8.28292221 17.3540961,6.71011201 C17.3540961,4.87239433 18.8415991,3.3 20.9574154,3.3 C23.002732,3.3 24.2836831,4.91522867 24.2836831,6.61113559 C24.2836831,8.26753512 23.017574,10.02 20.7488022,10.02 L20.7488022,10.02 Z M22.4782815,8.88392368 C22.8158546,8.43350876 22.8977657,7.87132421 22.8977657,7.32331938 C22.8977657,6.08384424 22.3119771,3.72 20.5806736,3.72 C20.1202338,3.72 19.6564844,3.90141712 19.3222208,4.19752323 C18.776974,4.69006029 18.6797563,5.30896376 18.6797563,5.9161898 C18.6797563,7.30663735 19.3615216,9.6 21.0535242,9.6 C21.5995984,9.6 22.1568423,9.3335045 22.4782815,8.88392368 L22.4782815,8.88392368 Z" id="Fill-4"></path>
                                <path d="M13.3369215,10.02 C11.1241226,10.02 9.94245091,8.28292221 9.94245091,6.71011201 C9.94245091,4.87239433 11.4309861,3.3 13.546859,3.3 C15.5917904,3.3 16.8720379,4.91522867 16.8720379,6.61113559 C16.8720379,8.26753512 15.6070511,10.02 13.3369215,10.02 L13.3369215,10.02 Z M15.0672582,8.88392368 C15.4025136,8.43350876 15.4861205,7.87132421 15.4861205,7.32331938 C15.4861205,6.08384424 14.8983888,3.72 13.1678916,3.72 C12.7055703,3.72 12.2465601,3.90141712 11.9113047,4.19752323 C11.3649626,4.69006029 11.268111,5.30896376 11.268111,5.9161898 C11.268111,7.30663735 11.9531082,9.6 13.6430437,9.6 C14.1881441,9.6 14.7448336,9.3335045 15.0672582,8.88392368 L15.0672582,8.88392368 Z" id="Fill-5"></path>
                                <path d="M9.02503294,9.60482454 L7.15187383,10.0346927 C6.39292144,10.1546076 5.71139626,10.26 4.9897083,10.26 C1.37671397,10.26 0,7.59490056 0,5.50904429 C0,2.96178515 1.95058633,0.6 5.29113621,0.6 C5.99791839,0.6 6.67778736,0.704147588 7.29720514,0.873439285 C8.27891607,1.14978308 8.73809676,1.49044113 9.02503294,1.69002277 L7.93691133,2.72568962 L7.47814469,2.82859241 L7.80524365,2.30619475 C7.36221088,1.87259224 6.54777588,1.07219106 5.00212978,1.07219106 C2.93560965,1.07219106 1.37671397,2.64643787 1.37671397,4.94473863 C1.37671397,7.41316095 3.15671198,9.73511275 6.01158202,9.73511275 C6.85044593,9.73511275 7.28229937,9.56623599 7.67440407,9.40856235 L7.67440407,7.29241613 L5.69649049,7.39905331 L6.74486335,6.83474765 L9.52064997,6.83474765 L9.18112953,7.16212792 C9.08962463,7.24013487 9.07720315,7.26669043 9.05153209,7.37125295 C9.03786846,7.49075297 9.02503294,7.87082943 9.02503294,8.00443709 L9.02503294,9.60482454" id="Fill-6"></path>
                                <path d="M44.0903959,8.93638642 L44.0903959,12.48 L43.3852404,12.48 L43.3852404,3.46285368 L44.0903959,3.46285368 L44.0903959,4.48986257 C44.5497591,3.82607922 45.3891711,3.3 46.3640786,3.3 C48.1127157,3.3 49.2904536,4.6238561 49.2904536,6.71951496 C49.2904536,8.80115602 48.1127157,10.1526354 46.3640786,10.1526354 C45.4436998,10.1526354 44.6191593,9.67891673 44.0903959,8.93638642 L44.0903959,8.93638642 Z M48.5673663,6.77354214 C48.5673663,5.17741006 47.7393302,3.96 46.2710899,3.96 C45.3592966,3.96 44.4873087,4.67994681 44.1083277,5.30781709 L44.1083277,8.22468494 C44.4873087,8.85380513 45.3592966,9.6 46.2710899,9.6 C47.7393302,9.6 48.5673663,8.37217404 48.5673663,6.77354214 L48.5673663,6.77354214 Z" id="Fill-7"></path>
                                <polygon id="Fill-8" points="50.2545701 0.96 50.9776574 0.96 50.9776574 10.02 50.2545701 10.02"></polygon>
                                <path d="M58.8390191,11.8560658 C58.9898098,11.9232838 59.2471869,11.9645218 59.4103714,11.9645218 C59.8416742,11.9645218 60.1420163,11.7884354 60.4117871,11.1665657 L60.9261282,10.0032406 L58.1482735,3.42 L58.9348641,3.42 L61.317771,9.1248704 L63.6775428,3.42 L64.4752877,3.42 L61.087247,11.384715 C60.7356774,12.205352 60.1825026,12.6 59.4227651,12.6 C59.19472,12.6 58.8939647,12.5595867 58.7179733,12.5055649 L58.8390191,11.8560658" id="Fill-9"></path>
                                <path d="M56.848976,10.0110607 C56.8016118,9.78344769 56.765881,9.58278337 56.739706,9.4152867 C56.7181013,9.24820463 56.7056371,9.0773912 56.7056371,8.9036756 C56.4625842,9.25981331 56.1181554,9.55624924 55.6781674,9.78966663 C55.2377639,10.0247424 54.8193806,10.14 54.2456096,10.14 C53.5546746,10.14 53.0182964,9.97043036 52.6356439,9.62631592 C52.2542379,9.28261607 52.0622884,8.81702509 52.0622884,8.22788459 C52.0622884,7.63957328 52.3402412,7.16195903 52.8944849,6.79670021 C53.4487285,6.429783 54.1650074,6.24736089 55.0516311,6.24736089 L56.7056371,6.24736089 L56.7056371,5.43185113 C56.7056371,4.9621142 56.5452637,4.59270942 56.2249325,4.32488059 C55.9033549,4.05663717 55.452149,3.92106437 54.8671602,3.92106437 C54.3324439,3.92106437 53.8986879,4.04502849 53.5683853,4.28632319 C53.240991,4.53259304 53.0760474,4.83773548 53.0760474,5.20548188 L52.3502126,5.20548188 L52.3352555,5.17024124 C52.3090806,4.67438477 52.5363454,4.23947388 53.0195428,3.86385016 C53.5006629,3.48864105 54.1309385,3.3 54.9066303,3.3 C55.6798293,3.3 56.3055347,3.48573888 56.7770988,3.85638744 C57.2482474,4.22330464 57.4846527,4.75357255 57.4846527,5.44677658 L57.4846527,8.68476906 C57.4846527,8.91735726 57.4958705,9.14206813 57.5249538,9.36097466 C57.554868,9.58029579 57.6026476,9.79920233 57.6662153,10.0110607 L56.848976,10.0110607 L56.848976,10.0110607 Z M54.3309328,9.54 C54.9328569,9.54 55.3654121,9.40497916 55.807515,9.13785461 C56.2467121,8.87239697 56.5455986,8.52609353 56.7020988,8.10686217 L56.7020988,6.84 L55.0416184,6.84 C54.4073149,6.84 53.882188,6.98085507 53.4691434,7.2650656 C53.0552687,7.54844266 52.845633,7.89141225 52.845633,8.2902238 C52.845633,8.66653187 52.9784715,8.96741164 53.2424879,9.19536348 C53.5073345,9.42581571 53.8693192,9.54 54.3309328,9.54 L54.3309328,9.54 Z" id="Fill-10"></path>
                            </g>
                            <g id="Get-it-on" transform="translate(20.668246, 3.800000)" fill="#FFFFFF">
                                <path d="M0.00255918942,3.11866043 C0.00255918942,1.82625646 1.03903091,0.994903475 2.32787539,0.994903475 C3.191671,0.994903475 3.75660413,1.37674136 4.10859773,1.84432935 L3.4776658,2.18309992 C3.23857581,1.87509172 2.81975324,1.63552978 2.32787539,1.63552978 C1.45121209,1.63552978 0.799940915,2.25077713 0.799940915,3.11866043 C0.799940915,3.97385425 1.45121209,4.60179108 2.32787539,4.60179108 C2.77990491,4.60179108 3.17838823,4.4110644 3.37762989,4.23264267 L3.37762989,3.59855336 L2.04893707,3.59855336 L2.04893707,2.96446406 L4.14844606,2.96446406 L4.14844606,4.49719903 C3.71675579,4.94671413 3.09205017,5.24818533 2.32787539,5.24818533 C1.03903091,5.24818533 0.00255918942,4.40529646 0.00255918942,3.11866043" id="Fill-1"></path>
                                <polyline id="Fill-2" points="5.15350954 5.18563707 5.15350954 1.05745174 8.23151646 1.05745174 8.23151646 1.69541238 5.94163079 1.69541238 5.94163079 2.75945341 8.18438908 2.75945341 8.18438908 3.39702741 5.94163079 3.39702741 5.94163079 4.54806306 8.23151646 4.54806306 8.23151646 5.18563707 5.15350954 5.18563707"></polyline>
                                <polyline id="Fill-3" points="10.3247685 5.18563707 10.3247685 1.69541238 8.98531407 1.69541238 8.98531407 1.05745174 12.4402198 1.05745174 12.4402198 1.69541238 11.1007654 1.69541238 11.1007654 5.18563707 10.3247685 5.18563707"></polyline>
                                <polygon id="Fill-4" points="15.2041444 1.05745174 15.957942 1.05745174 15.957942 5.18563707 15.2041444 5.18563707"></polygon>
                                <polyline id="Fill-5" points="18.1144248 5.18563707 18.1144248 1.69541238 16.7745561 1.69541238 16.7745561 1.05745174 20.2294618 1.05745174 20.2294618 1.69541238 18.8904217 1.69541238 18.8904217 5.18563707 18.1144248 5.18563707"></polyline>
                                <path d="M22.804937,3.12173694 C22.804937,1.89485093 23.7529725,0.994903475 25.0979481,0.994903475 C26.4353628,0.994903475 27.3905391,1.89485093 27.3905391,3.12173694 C27.3905391,4.34823787 26.4353628,5.24818533 25.0979481,5.24818533 C23.7529725,5.24818533 22.804937,4.34823787 22.804937,3.12173694 L22.804937,3.12173694 Z M26.573925,3.09027027 C26.573925,2.24843098 25.9930481,1.6203861 25.0979467,1.6203861 C24.1961686,1.6203861 23.621551,2.24843098 23.621551,3.09027027 C23.621551,3.92563094 24.1961686,4.56015444 25.0979467,4.56015444 C25.9930481,4.56015444 26.573925,3.92563094 26.573925,3.09027027 L26.573925,3.09027027 Z" id="Fill-6"></path>
                                <polyline id="Fill-7" points="31.3525595 5.18563707 29.0452764 2.23361918 29.0452764 5.18563707 28.2699697 5.18563707 28.2699697 1.05745174 29.0655702 1.05745174 31.3260533 3.91706199 31.3260533 1.05745174 32.1017742 1.05745174 32.1017742 5.18563707 31.3525595 5.18563707"></polyline>
                            </g>
                        </g>
                    </g>
                </g>
            </g>
        </g>
    </g>
</svg>