<?xml version="1.0" encoding="UTF-8"?>
<svg width="93px" height="34px" viewBox="0 0 93 34" version="1.1" xmlns="http://www.w3.org/2000/svg" xmlns:xlink="http://www.w3.org/1999/xlink">
    <title>icons/ios-app</title>
    <defs>
        <linearGradient x1="66.7338542%" y1="200.266927%" x2="66.7338542%" y2="24.9804688%" id="linearGradient-1">
            <stop stop-color="#4A4A4A" offset="0%"></stop>
            <stop stop-color="#383737" offset="100%"></stop>
        </linearGradient>
        <rect id="path-2" x="0" y="0" width="89" height="30" rx="3.6"></rect>
        <filter x="-3.9%" y="-8.3%" width="107.9%" height="123.3%" filterUnits="objectBoundingBox" id="filter-3">
            <feOffset dx="0" dy="1" in="SourceAlpha" result="shadowOffsetOuter1"></feOffset>
            <feGaussianBlur stdDeviation="1" in="shadowOffsetOuter1" result="shadowBlurOuter1"></feGaussianBlur>
            <feColorMatrix values="0 0 0 0 0   0 0 0 0 0   0 0 0 0 0  0 0 0 0.1 0" type="matrix" in="shadowBlurOuter1"></feColorMatrix>
        </filter>
    </defs>
    <g id="Landing" stroke="none" stroke-width="1" fill="none" fill-rule="evenodd">
        <g id="artboard/lotto-landing-front-end" transform="translate(-694.000000, -774.000000)">
            <g id="Group-8" transform="translate(533.000000, 292.000000)">
                <g id="Group-7" transform="translate(163.000000, 447.000000)">
                    <g id="App-Store" transform="translate(0.000000, 36.000000)">
                        <g id="background">
                            <use fill="black" fill-opacity="1" filter="url(#filter-3)" xlink:href="#path-2"></use>
                            <use fill="url(#linearGradient-1)" fill-rule="evenodd" xlink:href="#path-2"></use>
                        </g>
                        <g id="icon" transform="translate(7.893703, 5.280000)" fill="#FFFFFF">
                            <path d="M11.5899311,9.03325379 C11.5705396,6.88733148 13.3545517,5.84333328 13.4361294,5.79472878 C12.4257688,4.32793794 10.8597433,4.12752757 10.3094277,4.11154801 C8.99415347,3.97372427 7.71833078,4.89521247 7.04832327,4.89521247 C6.36494235,4.89521247 5.33318427,4.12486431 4.22118578,4.14750203 C2.79023161,4.16947393 1.45155392,4.99441893 0.71735407,6.27544733 C-0.797852542,8.88744027 0.33220005,12.7258648 1.783883,14.8371647 C2.5100588,15.8718415 3.35860125,17.0256992 4.46926241,16.9850844 C5.55585144,16.9411406 5.96173423,16.2952999 7.27299644,16.2952999 C8.57222259,16.2952999 8.95336459,16.9850844 10.0860919,16.9584518 C11.2522526,16.9411406 11.9864525,15.920446 12.6872188,14.8764478 C13.5263999,13.6926284 13.8634097,12.5241228 13.8767831,12.4641994 C13.8500363,12.4555438 11.6126659,11.6052978 11.5899311,9.03325379" id="Fill-2"></path>
                            <path d="M9.45018653,2.72265755 C10.0346043,1.99492156 10.434469,1.0048544 10.3234698,0.000139293764 C9.477602,0.0374249437 8.41976579,0.582727573 7.81060726,1.294484 C7.2716591,1.92168189 6.79021658,2.94970053 6.91458923,3.91646416 C7.86476955,3.98704057 8.84035933,3.43907468 9.45018653,2.72265755" id="Fill-3"></path>
                        </g>
                        <g transform="translate(26.716096, 12.140000)" fill="#FFFFFF">
                            <path d="M8.50602864,9.97660766 L6.98747868,9.97660766 L6.15565298,7.37393614 L3.26432315,7.37393614 L2.471949,9.97660766 L0.993519248,9.97660766 L3.85877094,1.11593929 L5.62807222,1.11593929 L8.50602864,9.97660766 L8.50602864,9.97660766 Z M5.90490167,6.28199925 L5.15264772,3.96895733 C5.07307597,3.73192712 4.92329385,3.17530563 4.70397004,2.29909286 L4.67722323,2.29909286 C4.58895877,2.67594425 4.44786936,3.23256574 4.25462368,3.96895733 L3.51507447,6.28199925 L5.90490167,6.28199925 L5.90490167,6.28199925 Z" id="Fill-4"></path>
                            <path d="M15.8600632,6.70346026 C15.8600632,7.79007062 15.5638423,8.6489722 14.9707319,9.27949917 C14.4398078,9.84078137 13.7798303,10.1210896 12.9928055,10.1210896 C12.1429257,10.1210896 11.5317612,9.81947528 11.1606492,9.21424929 L11.1606492,12.5666287 L9.73504442,12.5666287 L9.73504442,5.6874263 C9.73504442,5.00496574 9.71699032,4.30519399 9.68221947,3.58744523 L10.935976,3.58744523 L11.0155478,4.60081593 L11.0422946,4.60081593 C11.5177191,3.83712592 12.2392142,3.45561382 13.2074486,3.45561382 C13.9643833,3.45561382 14.5962766,3.75323321 15.1017912,4.34913779 C15.6066372,4.946374 15.8600632,5.73070428 15.8600632,6.70346026 L15.8600632,6.70346026 Z M14.4077116,6.75539384 C14.4077116,6.13352246 14.2672908,5.62084478 13.985112,5.21736078 C13.6768551,4.7972314 13.2629482,4.58616799 12.7440602,4.58616799 C12.3923397,4.58616799 12.0727153,4.70335147 11.7871932,4.93505515 C11.5010023,5.16742464 11.3137747,5.47170218 11.2261789,5.84921938 C11.1820467,6.02432878 11.1599806,6.16747904 11.1599806,6.28066762 L11.1599806,7.34730353 C11.1599806,7.81071089 11.303076,8.20287603 11.5892668,8.52379895 C11.8754576,8.84339023 12.2472383,9.00385169 12.7046087,9.00385169 C13.2415508,9.00385169 13.6594697,8.79678317 13.9583652,8.38597521 C14.2579295,7.97383561 14.4077116,7.43053043 14.4077116,6.75539384 L14.4077116,6.75539384 Z" id="Fill-5"></path>
                            <path d="M23.2401759,6.70346026 C23.2401759,7.79007062 22.943955,8.6489722 22.3508446,9.27949917 C21.8192518,9.84078137 21.159943,10.1210896 20.3722495,10.1210896 C19.5230384,10.1210896 18.9118739,9.81947528 18.5400933,9.21424929 L18.5400933,12.5666287 L17.1144884,12.5666287 L17.1144884,5.6874263 C17.1144884,5.00496574 17.0964343,4.30519399 17.0616635,3.58744523 L18.3154201,3.58744523 L18.3949918,4.60081593 L18.4217386,4.60081593 C18.8964945,3.83712592 19.6179896,3.45561382 20.5868927,3.45561382 C21.3431586,3.45561382 21.9757206,3.75323321 22.4819039,4.34913779 C22.9860812,4.946374 23.2401759,5.73070428 23.2401759,6.70346026 L23.2401759,6.70346026 Z M21.7871556,6.75539384 C21.7871556,6.13352246 21.6460662,5.62084478 21.3638874,5.21736078 C21.0562991,4.7972314 20.6430609,4.58616799 20.1241729,4.58616799 C19.7724524,4.58616799 19.452828,4.70335147 19.1659685,4.93505515 C18.8804464,5.16742464 18.6932187,5.47170218 18.6056229,5.84921938 C18.5621594,6.02432878 18.5387559,6.16747904 18.5387559,6.28066762 L18.5387559,7.34730353 C18.5387559,7.81071089 18.68252,8.20287603 18.9673735,8.52379895 C19.2535643,8.84272442 19.6253449,9.00385169 20.0840527,9.00385169 C20.6216635,9.00385169 21.0395824,8.79678317 21.3378093,8.38597521 C21.6373735,7.97383561 21.7871556,7.43053043 21.7871556,6.75539384 L21.7871556,6.75539384 Z" id="Fill-6"></path>
                            <path d="M31.4915658,7.49178542 C31.4915658,8.2454882 31.2274411,8.85870398 30.700529,9.33209857 C30.1214606,9.84877115 29.3130384,10.1077733 28.2765996,10.1077733 C27.319064,10.1077733 26.5514306,9.92400826 25.9723622,9.55581247 L26.3020166,8.3726589 C26.9272232,8.7408547 27.6139475,8.9252855 28.3615208,8.9252855 C28.8991316,8.9252855 29.3170504,8.80410714 29.6152773,8.56374786 C29.9148416,8.32205695 30.0652924,8.00046822 30.0652924,7.59831585 C30.0652924,7.23810984 29.9409197,6.93582975 29.6948491,6.69014395 C29.4481098,6.44578978 29.040221,6.21674936 28.4678393,6.0076834 C26.9098378,5.42909001 26.1301684,4.5821731 26.1301684,3.46959594 C26.1301684,2.74252577 26.4056605,2.147287 26.9546387,1.68188219 C27.5042856,1.2171432 28.2331361,0.984773704 29.1398528,0.984773704 C29.9496124,0.984773704 30.6243006,1.12526071 31.1599054,1.4055689 L30.8021669,2.56275567 C30.2979896,2.29110308 29.7289513,2.15527678 29.0923772,2.15527678 C28.5895373,2.15527678 28.1943532,2.27845259 27.9128431,2.52347258 C27.6754652,2.74252577 27.5544359,3.00951766 27.5544359,3.32644568 C27.5544359,3.67599865 27.6915132,3.96629406 27.9649993,4.19333704 C28.2017086,4.40373464 28.6336695,4.63210924 29.2582075,4.87712923 C30.0245035,5.18473584 30.5868551,5.5429444 30.947937,5.95441818 C31.3110249,6.36589196 31.4915658,6.87923546 31.4915658,7.49178542" id="Fill-7"></path>
                            <path d="M36.2170579,4.65274951 L34.645683,4.65274951 L34.645683,7.75478242 C34.645683,8.5437734 34.9225125,8.93727017 35.4775087,8.93727017 C35.7322721,8.93727017 35.9435718,8.91596409 36.1107394,8.87135447 L36.1501909,9.94930924 C35.8693495,10.0538422 35.4995748,10.1064416 35.0422044,10.1064416 C34.4785155,10.1064416 34.0391992,9.93466131 33.7209122,9.59309812 C33.4039625,9.25086912 33.2454877,8.67760225 33.2454877,7.87063426 L33.2454877,4.65008625 L32.3100181,4.65008625 L32.3100181,3.58478197 L33.2454877,3.58478197 L33.2454877,2.4149447 L34.645683,1.99414951 L34.645683,3.58478197 L36.2170579,3.58478197 L36.2170579,4.65274951" id="Fill-8"></path>
                            <path d="M43.2929257,6.72942705 C43.2929257,7.71150443 43.0114156,8.51780661 42.4477266,9.14833358 C41.8586282,9.79683757 41.0749467,10.1210896 40.0980196,10.1210896 C39.1551947,10.1210896 38.4056154,9.81015387 37.8466072,9.18828249 C37.2875989,8.56641112 37.0080948,7.78208084 37.0080948,6.83595748 C37.0080948,5.84589031 37.2976289,5.03492742 37.8726853,4.40440045 C38.449079,3.77387348 39.2260737,3.45761127 40.2030008,3.45761127 C41.1451571,3.45761127 41.9007544,3.76987859 42.4738047,4.39108415 C43.0207769,4.99497851 43.2929257,5.77331645 43.2929257,6.72942705 L43.2929257,6.72942705 Z M41.8151646,6.76205199 C41.8151646,6.17680045 41.6881173,5.67477581 41.433354,5.25464643 C41.1344584,4.74729527 40.7058408,4.4942855 40.1521819,4.4942855 C39.5818063,4.4942855 39.1424899,4.74729527 38.8449317,5.25464643 C38.588831,5.67477581 38.4624524,6.18545605 38.4624524,6.7886846 C38.4624524,7.37460195 38.588831,7.87795823 38.8449317,8.29609016 C39.1531887,8.80410714 39.5831436,9.05778272 40.1408145,9.05778272 C40.685112,9.05778272 41.1123923,8.7981148 41.4219866,8.28410548 C41.6834366,7.85398888 41.8151646,7.34863516 41.8151646,6.76205199 L41.8151646,6.76205199 Z" id="Fill-9"></path>
                            <path d="M47.928816,4.83584869 C47.7877266,4.80988189 47.6366072,4.7972314 47.4794697,4.7972314 C46.977967,4.7972314 46.5901383,4.98432547 46.3173209,5.36250849 C46.079943,5.69541608 45.9615884,6.11621127 45.9615884,6.62422825 L45.9615884,9.97660766 L44.5359836,9.97660766 L44.5359836,5.59953869 C44.5359836,4.86381292 44.5219415,4.19200541 44.494526,3.58811104 L45.7362465,3.58811104 L45.7884028,4.81054771 L45.8278543,4.81054771 C45.9789738,4.39041833 46.215683,4.05151841 46.5406567,3.79850864 C46.8589437,3.56946822 47.2013029,3.45561382 47.5710775,3.45561382 C47.7028055,3.45561382 47.8218288,3.46560105 47.9274787,3.48158062 L47.928816,4.83584869" id="Fill-10"></path>
                            <path d="M54.3045861,6.47974636 C54.3045861,6.73408775 54.2878694,6.94848024 54.2524298,7.12358963 L49.9762841,7.12358963 C49.9916635,7.75478242 50.1996199,8.23816424 50.5961413,8.57107183 C50.9565546,8.86802539 51.4232863,9.01716799 51.9949993,9.01716799 C52.62823,9.01716799 53.205961,8.91729572 53.7255177,8.7148879 L53.9488536,9.70029437 C53.3417011,9.96329136 52.624218,10.0951228 51.7977416,10.0951228 C50.8027604,10.0951228 50.0217537,9.80349572 49.453384,9.22157325 C48.8870204,8.63898497 48.6021669,7.85532051 48.6021669,6.87524057 C48.6021669,5.91247183 48.8656229,5.11016454 49.3952097,4.47031615 C49.9488686,3.78718978 50.6971105,3.4456266 51.6385981,3.4456266 C52.563369,3.4456266 53.2634667,3.78718978 53.7382225,4.47031615 C54.1153525,5.01162389 54.3045861,5.68276559 54.3045861,6.47974636 L54.3045861,6.47974636 Z M52.9451797,6.11155056 C52.9552097,5.69008956 52.8615959,5.3278861 52.6683502,5.02027949 C52.4216109,4.62478527 52.0418063,4.42770398 51.5329482,4.42770398 C51.0662165,4.42770398 50.6870805,4.62012457 50.398215,5.00629737 C50.1608371,5.31323817 50.0197476,5.68276559 49.9762841,6.11021893 L52.9451797,6.11155056 L52.9451797,6.11155056 Z" id="Fill-11"></path>
                        </g>
                        <g id="Available-on-the" transform="translate(27.258411, 4.520000)" fill="#FFFFFF">
                            <path d="M4.67519322,5.56466161 L3.92828864,5.56466161 L3.51973117,4.28563065 L2.09880705,4.28563065 L1.70897234,5.56466161 L0.982127861,5.56466161 L2.39034724,1.20956454 L3.25961847,1.20956454 L4.67519322,5.56466161 L4.67519322,5.56466161 Z M3.39669585,3.74898362 L3.02692125,2.6117713 C2.98813838,2.49525364 2.91659067,2.22426687 2.80626009,1.791487 L2.79288669,1.791487 C2.74741712,1.97858107 2.68255611,2.25023366 2.58493026,2.6117713 L2.22184236,3.74898362 L3.39669585,3.74898362 L3.39669585,3.74898362 Z" id="Fill-12"></path>
                            <path d="M8.19641035,2.42467724 L7.00216543,5.56466161 L6.32079052,5.56466161 L5.16532846,2.42467724 L5.91825108,2.42467724 L6.45719924,4.08522029 C6.54813838,4.36286521 6.62570412,4.62785965 6.68387842,4.87953779 L6.70326986,4.87953779 C6.75542613,4.65382645 6.83299187,4.38883201 6.92994905,4.08522029 L7.46221051,2.42467724 L8.19641035,2.42467724" id="Fill-13"></path>
                            <path d="M10.7386944,5.56466161 L10.6865381,5.20312397 L10.6671466,5.20312397 C10.4531722,5.4940852 10.1415719,5.63590383 9.74571915,5.63590383 C9.18136152,5.63590383 8.77882208,5.24174125 8.77882208,4.71175237 C8.77882208,3.9367435 9.45351028,3.53592276 10.6216771,3.53592276 L10.6216771,3.47799684 C10.6216771,3.06452562 10.4010159,2.8574571 9.9663803,2.8574571 C9.65478,2.8574571 9.38196257,2.93535748 9.14257865,3.09049241 L9.0001519,2.63174576 C9.29236077,2.45064403 9.65544867,2.36009316 10.0840663,2.36009316 C10.9078679,2.36009316 11.3237808,2.79287303 11.3237808,3.65909857 L11.3237808,4.81561953 C11.3237808,5.13254756 11.3371542,5.37823336 11.3692503,5.56532742 L10.7386944,5.56466161 L10.7386944,5.56466161 Z M10.6410685,4.00066176 C9.86206776,4.00066176 9.47290171,4.18842164 9.47290171,4.63385199 C9.47290171,4.9634305 9.67417144,5.12455778 9.9530069,5.12455778 C10.3100768,5.12455778 10.6410685,4.853571 10.6410685,4.48537521 L10.6410685,4.00066176 L10.6410685,4.00066176 Z" id="Fill-14"></path>
                            <path d="M12.8844569,1.90733884 C12.651091,1.90733884 12.4692128,1.72623711 12.4692128,1.48720947 C12.4692128,1.24818182 12.6571091,1.07373824 12.8978303,1.07373824 C13.1378829,1.07373824 13.332466,1.24818182 13.3257793,1.48720947 C13.3257793,1.73955342 13.1445696,1.90733884 12.8844569,1.90733884 L12.8844569,1.90733884 Z M12.5474472,2.42467724 L13.2482135,2.42467724 L13.2482135,5.56466161 L12.5474472,5.56466161 L12.5474472,2.42467724 Z" id="Fill-15"></path>
                            <polygon id="Fill-16" points="14.4932774 0.983853193 15.1940437 0.983853193 15.1940437 5.56466161 14.4932774 5.56466161"></polygon>
                            <path d="M18.1723007,5.56466161 L18.1194757,5.20312397 L18.100753,5.20312397 C17.8867785,5.4940852 17.5751782,5.63590383 17.1793255,5.63590383 C16.6149678,5.63590383 16.2124284,5.24174125 16.2124284,4.71175237 C16.2124284,3.9367435 16.8871166,3.53592276 18.0552834,3.53592276 L18.0552834,3.47799684 C18.0552834,3.06452562 17.8346222,2.8574571 17.3999866,2.8574571 C17.0883863,2.8574571 16.8155689,2.93535748 16.576185,3.09049241 L16.4330895,2.63107994 C16.7252984,2.44997821 17.0883863,2.35942735 17.5170039,2.35942735 C18.3408055,2.35942735 18.7573871,2.79220721 18.7573871,3.65843276 L18.7573871,4.81495372 C18.7573871,5.13188174 18.7707605,5.37756754 18.8015193,5.56466161 L18.1723007,5.56466161 L18.1723007,5.56466161 Z M18.0746748,4.00066176 C17.2956741,4.00066176 16.906508,4.18842164 16.906508,4.63385199 C16.906508,4.9634305 17.1077777,5.12455778 17.3866132,5.12455778 C17.7436831,5.12455778 18.0746748,4.853571 18.0746748,4.48537521 L18.0746748,4.00066176 L18.0746748,4.00066176 Z" id="Fill-17"></path>
                            <path d="M21.5958919,5.63590383 C21.1485516,5.63590383 20.8182285,5.44814395 20.6035854,5.07994816 L20.590212,5.07994816 L20.5500918,5.56466161 L19.953638,5.56466161 C19.9723608,5.31298347 19.9790475,5.02801458 19.9790475,4.71841052 L19.9790475,0.983853193 L20.6811512,0.983853193 L20.6811512,2.88408971 L20.6938559,2.88408971 C20.9018123,2.53520255 21.2388221,2.36075898 21.6995358,2.36075898 C22.4591451,2.36075898 22.9914066,3.00726551 22.9914066,3.9500598 C22.9914066,4.92481322 22.4003022,5.63590383 21.5958919,5.63590383 L21.5958919,5.63590383 Z M21.4534652,2.90872487 C21.0502571,2.90872487 20.6811512,3.25761202 20.6811512,3.74232547 L20.6811512,4.29162299 C20.6811512,4.72440285 21.0128116,5.07994816 21.4407605,5.07994816 C21.9656666,5.07994816 22.2786042,4.65382645 22.2786042,3.97536078 C22.2779355,3.34217055 21.9529618,2.90872487 21.4534652,2.90872487 L21.4534652,2.90872487 Z" id="Fill-18"></path>
                            <polygon id="Fill-19" points="24.028514 0.983853193 24.7286117 0.983853193 24.7286117 5.56466161 24.028514 5.56466161"></polygon>
                            <path d="M28.5427064,4.16245485 L26.43907,4.16245485 C26.4531121,4.7570278 26.8476275,5.09259865 27.4313765,5.09259865 C27.7436455,5.09259865 28.0291677,5.04066506 28.281925,4.94412186 L28.3909182,5.42883531 C28.0926913,5.55800346 27.7423082,5.62258753 27.3337507,5.62258753 C26.3467935,5.62258753 25.7630445,5.00204778 25.7630445,4.03994485 C25.7630445,3.07717611 26.3608356,2.35343501 27.2555163,2.35343501 C28.0592578,2.35343501 28.5667785,2.94800796 28.5667785,3.84619264 C28.5687845,3.96870263 28.5627665,4.07856213 28.5427064,4.16245485 L28.5427064,4.16245485 Z M27.900783,3.66509091 C27.900783,3.18037746 27.653375,2.83814846 27.205366,2.83814846 C26.8028266,2.83814846 26.4858769,3.18703561 26.43907,3.66509091 L27.900783,3.66509091 L27.900783,3.66509091 Z" id="Fill-20"></path>
                            <path d="M32.7900993,5.63590383 C31.8686718,5.63590383 31.2715493,4.95078002 31.2715493,4.02063621 C31.2715493,3.05120932 31.8813765,2.36009316 32.8429243,2.36009316 C33.7503097,2.36009316 34.3614742,3.01259204 34.3614742,3.96936844 C34.3614742,4.95078002 33.7315869,5.63590383 32.7900993,5.63590383 L32.7900993,5.63590383 Z M32.8168461,2.87010759 C32.3106628,2.87010759 31.9863578,3.34150473 31.9863578,4.00066176 C31.9863578,4.64716829 32.3173495,5.11856544 32.8101594,5.11856544 C33.3029693,5.11856544 33.6339611,4.61454335 33.6339611,3.98734545 C33.6339611,3.34816289 33.309656,2.87010759 32.8168461,2.87010759 L32.8168461,2.87010759 Z" id="Fill-21"></path>
                            <path d="M38.128762,5.56466161 L37.429333,5.56466161 L37.429333,3.76163411 C37.429333,3.20634425 37.2146898,2.92803351 36.792759,2.92803351 C36.3775148,2.92803351 36.091324,3.28357881 36.091324,3.69705004 L36.091324,5.56466161 L35.391895,5.56466161 L35.391895,3.32219609 C35.391895,3.04455116 35.3838709,2.74693178 35.3651481,2.42401142 L35.981662,2.42401142 L36.0144269,2.90872487 L36.034487,2.90872487 C36.221046,2.57315402 36.6048626,2.35942735 37.0334802,2.35942735 C37.6941264,2.35942735 38.128762,2.86344944 38.128762,3.68373373 L38.128762,5.56466161" id="Fill-22"></path>
                            <path d="M42.7138333,2.94800796 L41.9428566,2.94800796 L41.9428566,4.47272472 C41.9428566,4.86089497 42.0785967,5.05464718 42.3507454,5.05464718 C42.4737808,5.05464718 42.578762,5.04133088 42.6623457,5.02202224 L42.6817372,5.55201112 C42.5453285,5.6039447 42.3627815,5.6299115 42.1374397,5.6299115 C41.5844494,5.6299115 41.2554637,5.32629977 41.2554637,4.53131645 L41.2554637,2.94800796 L40.7960873,2.94800796 L40.7960873,2.42467724 L41.2554637,2.42467724 L41.2554637,1.84941292 L41.9428566,1.6423444 L41.9428566,2.42401142 L42.7138333,2.42401142 L42.7138333,2.94800796" id="Fill-23"></path>
                            <path d="M46.4249528,5.56466161 L45.7235178,5.56466161 L45.7235178,3.77495041 C45.7235178,3.2130024 45.5088747,2.92869932 45.0876125,2.92869932 C44.7245246,2.92869932 44.3875148,3.17438512 44.3875148,3.67174906 L44.3875148,5.56466161 L43.6860798,5.56466161 L43.6860798,0.983853193 L44.3875148,0.983853193 L44.3875148,2.87010759 L44.4008882,2.87010759 C44.6208807,2.52787859 44.9398364,2.35942735 45.3483938,2.35942735 C46.0163953,2.35942735 46.4249528,2.87609992 46.4249528,3.69705004 L46.4249528,5.56466161" id="Fill-24"></path>
                            <path d="M50.0056816,4.16245485 L47.9027139,4.16245485 C47.9160873,4.7570278 48.3106027,5.09259865 48.8950204,5.09259865 C49.2079581,5.09259865 49.4928116,5.04066506 49.7442315,4.94412186 L49.8538935,5.42883531 C49.5563352,5.55800346 49.2052834,5.62258753 48.7960572,5.62258753 C47.8097687,5.62258753 47.2260197,5.00204778 47.2260197,4.03994485 C47.2260197,3.07717611 47.8231421,2.35343501 48.7178228,2.35343501 C49.522233,2.35343501 50.029085,2.94800796 50.029085,3.84619264 C50.0317597,3.96870263 50.025073,4.07856213 50.0056816,4.16245485 L50.0056816,4.16245485 Z M49.3630895,3.66509091 C49.3630895,3.18037746 49.1170189,2.83814846 48.6690099,2.83814846 C48.2664705,2.83814846 47.9488521,3.18703561 47.9027139,3.66509091 L49.3630895,3.66509091 L49.3630895,3.66509091 Z" id="Fill-25"></path>
                        </g>
                    </g>
                </g>
            </g>
        </g>
    </g>
</svg>