<?xml version="1.0" encoding="UTF-8"?>
<svg width="23px" height="24px" viewBox="0 0 23 24" version="1.1" xmlns="http://www.w3.org/2000/svg" xmlns:xlink="http://www.w3.org/1999/xlink">
    <title>icons/money-bag</title>
    <g id="Landing" stroke="none" stroke-width="1" fill="none" fill-rule="evenodd">
        <g id="artboard/lotto-landing-front-end" transform="translate(-825.000000, -668.000000)" fill-rule="nonzero">
            <g id="Group-8" transform="translate(533.000000, 292.000000)">
                <g id="Group-5" transform="translate(117.000000, 369.000000)">
                    <g id="Group-11" transform="translate(160.000000, 0.000000)">
                        <g id="Group-5" transform="translate(15.000000, 7.000000)">
                            <path d="M22.6009744,22.5669485 C22.6015748,22.3074327 22.5298823,22.0532872 22.3936131,21.8323027 L21.0724723,19.7054949 C20.9078079,19.3784486 20.8224886,19.0171001 20.8236298,18.6509854 L20.8236298,12.098648 C20.8236298,7.8449653 17.3756812,4.39701673 13.1219985,4.39701673 L9.56738398,4.39701673 C5.31370129,4.39701673 1.86575272,7.8449653 1.86575272,12.098648 L1.86575272,18.6509854 C1.86696102,19.0171001 1.78164168,19.3785157 1.61691023,19.7054949 L0.295769436,21.8323027 C0.159500149,22.0532872 0.0878077368,22.3074327 0.0884080994,22.5669485 L0.0884080994,22.5669485 C0.0913655064,23.3282441 0.707530914,23.9443424 1.46875934,23.947296 L21.2204889,23.947296 C21.9818516,23.9443424 22.598017,23.328177 22.6009744,22.5669485 Z" id="Path" fill="#88B337"></path>
                            <polygon id="Path" fill="#88B337" points="13.1220656 4.39701673 16.0842109 0.25 6.60530589 0.25 9.56745111 4.39701673 9.56745111 5.58188824 13.1220656 5.58188824"></polygon>
                            <path d="M22.3936131,21.8323027 L21.0724723,19.7054949 C20.9078079,19.3784486 20.8224886,19.0171001 20.8236298,18.6509854 L20.8236298,12.098648 C20.8277917,10.3829304 20.2584814,8.71467214 19.2063214,7.35916194 C17.6245237,16.0738849 12.0556746,21.097724 6.82447792,23.9473065 L21.2206232,23.9473065 C21.9860135,23.9502496 22.6092944,23.3323389 22.6122631,22.5663444 C22.6134564,22.3068286 22.541764,22.052683 22.4054947,21.8323027 L22.3936131,21.8323027 Z" id="Path" fill="#6B962A"></path>
                            <path d="M14.30687,13.2835195 L14.30687,12.9043821 C14.3039164,11.8065752 13.4140713,10.9167972 12.3162644,10.9137765 L11.937127,10.9137765 L11.937127,9.72890497 L10.7522555,9.72890497 L10.7522555,10.9137765 L10.3731181,10.9137765 C9.27356592,10.9102187 8.37955885,11.7982514 8.37598852,12.8978036 C8.37304746,13.7325369 8.89140777,14.4802055 9.67404994,14.7704658 L10.7522555,15.1732993 L10.7522555,17.4304691 L10.3731181,17.4304691 C9.92819551,17.4304691 9.56738398,17.0696576 9.56738398,16.624735 L9.56738398,16.624735 L9.56738398,16.2455976 L8.38251247,16.2455976 L8.38251247,16.624735 C8.38546609,17.7225418 9.27531124,18.6123199 10.3731181,18.6153513 L12.3163315,18.6153513 C13.4158837,18.6188984 14.3098908,17.7308657 14.3134611,16.6313135 C14.3164022,15.7965802 13.7980419,15.0489116 13.0153997,14.7586513 L11.9371941,14.3558178 L11.9371941,12.098648 L12.3163315,12.098648 C12.7612541,12.098648 13.1220656,12.4594595 13.1220656,12.9043821 L13.1220656,12.9043821 L13.1220656,13.2835195 L14.30687,13.2835195 L14.30687,13.2835195 Z M12.6006846,15.8665273 C12.9134998,15.9879614 13.1202532,16.2889621 13.1219985,16.6248692 C13.1219985,17.0697918 12.761187,17.4306034 12.3162644,17.4306034 L12.3162644,17.4306034 L11.937127,17.4306034 L11.937127,15.617752 L12.6006846,15.8665273 Z M10.7523226,13.9114994 L10.088765,13.6626569 C9.77594983,13.5412228 9.56919643,13.2402221 9.56745111,12.904315 C9.56745111,12.4593924 9.92826264,12.0985809 10.3731852,12.0985809 L10.3731852,12.0985809 L10.7523226,12.0985809 L10.7523226,13.9114994 L10.7523226,13.9114994 Z" id="Shape" fill="#FFFFFF"></path>
                        </g>
                    </g>
                </g>
            </g>
        </g>
    </g>
</svg>