<?xml version="1.0" encoding="UTF-8"?>
<svg width="20px" height="24px" viewBox="0 0 20 24" version="1.1" xmlns="http://www.w3.org/2000/svg" xmlns:xlink="http://www.w3.org/1999/xlink">
    <title>icons/notify-me</title>
    <g id="Landing" stroke="none" stroke-width="1" fill="none" fill-rule="evenodd">
        <g id="artboard/lotto-landing-front-end" transform="translate(-663.000000, -669.000000)" fill-rule="nonzero">
            <g id="Group-8" transform="translate(533.000000, 292.000000)">
                <g id="Group-5" transform="translate(117.000000, 369.000000)">
                    <g id="notification" transform="translate(13.000000, 8.000000)">
                        <path d="M12.8222526,21.0144069 C12.8222526,19.3654837 11.48344,18.0288138 9.83178969,18.0288138 C8.18013939,18.0288138 6.84132676,19.3654837 6.84132676,21.0144069 C6.84132676,22.6633301 8.18013939,24 9.83178969,24 C11.48344,24 12.8222526,22.6633301 12.8222526,21.0144069 L12.8222526,21.0144069 Z" id="Path" fill="#F7C92B"></path>
                        <path d="M9.83178969,18.0288138 C9.52947088,18.0288138 9.23767091,18.0740058 8.96262312,18.1573772 C10.1902089,18.5290423 11.0839194,19.6672181 11.0839194,21.0144069 C11.0839194,22.3614008 10.1902089,23.4997714 8.96262312,23.8714366 C9.23767091,23.954808 9.52947088,24 9.83178969,24 C11.48344,24 12.8222526,22.6633301 12.8222526,21.0144069 C12.8222526,19.3654837 11.48344,18.0288138 9.83178969,18.0288138 L9.83178969,18.0288138 Z" id="Path" fill="#F2B51D"></path>
                        <path d="M10.1812485,3.58938925 C9.2207239,3.78203956 8.28591203,3.16103931 8.09287211,2.20207311 C7.89983223,1.24330173 8.52200121,0.309853424 9.48233098,0.117203059 C10.4426607,-0.0754472573 11.3776674,0.545552992 11.5707073,1.5045192 C11.7635524,2.46329062 11.1415782,3.39673893 10.1812485,3.58938925 Z" id="Path" fill="#F7C92B"></path>
                        <path d="M11.5707073,1.5045192 C11.3776674,0.545552992 10.4426607,-0.0754472573 9.48233098,0.117203059 C9.39292096,0.135124069 9.30662763,0.159667969 9.22345103,0.189666124 C9.78406541,0.394588364 10.2279988,0.877285572 10.3542247,1.5045192 C10.5293437,2.37407538 10.0337901,3.2227887 9.22364581,3.51692623 C9.52012081,3.62523117 9.84912626,3.65600844 10.1812485,3.58938925 C11.1415782,3.39673893 11.7635524,2.46329062 11.5707073,1.5045192 Z" id="Path" fill="#F2B51D"></path>
                        <path d="M17.2386007,20.5147627 L2.42497869,20.5147627 C1.09941198,20.5147627 0.0249335106,19.4420374 0.0249335106,18.1188082 C0.0249335106,17.3861915 0.357055652,16.692923 0.92818888,16.2330167 L1.40406832,15.8496639 C2.50484387,14.9633555 3.14493381,13.62727 3.14493381,12.21541 L3.14493381,9.69732018 C3.14493381,5.98203231 6.16149904,2.9703369 9.8828255,2.9703369 C13.6039572,2.9703369 16.6207171,5.98203231 16.6207171,9.69732018 L16.6207171,12.2619655 C16.6207171,13.6471389 17.2368476,14.961018 18.3025604,15.8481056 L18.765973,16.2337958 C19.3189905,16.6940918 19.6386459,17.3758675 19.6386459,18.0946538 L19.6386459,18.1188082 C19.6386459,19.4420374 18.5641675,20.5147627 17.2386007,20.5147627 L17.2386007,20.5147627 Z" id="Path" fill="#F7E249"></path>
                        <path d="M18.765973,16.2337958 L18.3025604,15.8481056 C17.2368476,14.9608232 16.6207171,13.6471389 16.6207171,12.2617707 L16.6207171,9.6971254 C16.6207171,5.98203231 13.6039572,2.97014212 9.8828255,2.97014212 C9.22345103,2.97014212 8.58647773,3.06520113 7.98437239,3.24148883 C10.7812111,4.05981443 12.823811,6.640238 12.823811,9.6971254 L12.823811,12.2617707 C12.823811,13.6471389 13.4399414,14.9608232 14.5056542,15.8481056 L14.9692617,16.2337958 C15.5220843,16.6940918 15.8419345,17.3758675 15.8419345,18.0946538 L15.8419345,18.1188082 C15.8419345,19.4420374 14.7674561,20.5147627 13.4418894,20.5147627 L17.2387955,20.5147627 C18.5641675,20.5147627 19.6386459,19.4420374 19.6386459,18.1188082 L19.6386459,18.0946538 C19.6386459,17.3758675 19.3189905,16.6940918 18.765973,16.2337958 L18.765973,16.2337958 Z" id="Path" fill="#F7C92B"></path>
                    </g>
                </g>
            </g>
        </g>
    </g>
</svg>